<?xml version="1.0" encoding="UTF-8"?>
<svg xmlns="http://www.w3.org/2000/svg" viewBox="0 0 960 820" font-family="'Segoe UI',Arial,sans-serif">
  <rect width="960" height="820" fill="#f8f6f3"/>
  <rect x="6" y="6" width="948" height="808" rx="10" fill="none" stroke="#e8e3db" stroke-width="1"/>
  <defs>
    <marker id="a-green" markerWidth="10" markerHeight="7" refX="9" refY="3.5" orient="auto">
      <polygon points="0 0, 10 3.5, 0 7" fill="#059669"/>
    </marker>
    <marker id="a-blue" markerWidth="10" markerHeight="7" refX="9" refY="3.5" orient="auto">
      <polygon points="0 0, 10 3.5, 0 7" fill="#2563eb"/>
    </marker>
    <marker id="a-orange" markerWidth="10" markerHeight="7" refX="9" refY="3.5" orient="auto">
      <polygon points="0 0, 10 3.5, 0 7" fill="#ea580c"/>
    </marker>
    <marker id="a-gray" markerWidth="10" markerHeight="7" refX="9" refY="3.5" orient="auto">
      <polygon points="0 0, 10 3.5, 0 7" fill="#6b7280"/>
    </marker>
    <marker id="a-purple" markerWidth="10" markerHeight="7" refX="9" refY="3.5" orient="auto">
      <polygon points="0 0, 10 3.5, 0 7" fill="#7c3aed"/>
    </marker>
  </defs>
  <text x="480" y="30" text-anchor="middle" font-size="15" font-weight="700" fill="#1a1a1a" letter-spacing="0.3">Hindsight Memory Flow + ClickHouse Feedback Loop</text>
  <text x="480" y="46" text-anchor="middle" font-size="10" fill="#6b7280">Abzum Agent Architecture — Context Persistence v2.0 — All 9 Intelligence Types Covered</text>
  <rect x="40" y="57" width="880" height="106" rx="8" fill="#ffffff" stroke="#94a3b8" stroke-width="1.5" stroke-dasharray="6,3"/>
  <text x="480" y="76" text-anchor="middle" font-size="10" font-weight="700" fill="#475569" letter-spacing="2">HERMES AGENT RUNTIME</text>
  <rect x="60" y="83" width="232" height="67" rx="4" fill="#f0fdf4" stroke="#16a34a" stroke-width="1"/>
  <text x="176" y="97" text-anchor="middle" font-size="9" font-weight="700" fill="#16a34a">MEMORY PROVIDER (1/1 slot)</text>
  <text x="176" y="112" text-anchor="middle" font-family="Consolas,monospace" font-size="8.5" fill="#374151">hindsight.recall(query, top_k=10)</text>
  <text x="176" y="126" text-anchor="middle" font-family="Consolas,monospace" font-size="8.5" fill="#374151">hindsight.retain(content, metadata)</text>
  <text x="176" y="140" text-anchor="middle" font-family="Consolas,monospace" font-size="8.5" fill="#374151">hindsight.reflect(topic)</text>
  <rect x="364" y="83" width="232" height="67" rx="4" fill="#eff6ff" stroke="#2563eb" stroke-width="1"/>
  <text x="480" y="97" text-anchor="middle" font-size="9" font-weight="700" fill="#2563eb">HERMES SKILL (always active)</text>
  <text x="480" y="112" text-anchor="middle" font-family="Consolas,monospace" font-size="8.5" fill="#374151">llm_wiki.query(task, max_pages=5)</text>
  <text x="480" y="126" text-anchor="middle" font-family="Consolas,monospace" font-size="8.5" fill="#374151">llm_wiki.ingest(source, category)</text>
  <text x="480" y="140" text-anchor="middle" font-family="Consolas,monospace" font-size="8.5" fill="#374151">llm_wiki.lint()</text>
  <rect x="668" y="83" width="232" height="67" rx="4" fill="#fff7ed" stroke="#ea580c" stroke-width="1"/>
  <text x="784" y="97" text-anchor="middle" font-size="9" font-weight="700" fill="#ea580c">ANALYTICS HOOK (5 moments)</text>
  <text x="784" y="112" text-anchor="middle" font-family="Consolas,monospace" font-size="8.5" fill="#374151">emit_signal("task_start", {...})</text>
  <text x="784" y="126" text-anchor="middle" font-family="Consolas,monospace" font-size="8.5" fill="#374151">emit_signal("task_end", {...})</text>
  <text x="784" y="140" text-anchor="middle" font-size="8.5" fill="#9a3412">failure never blocks agent execution</text>
  <rect x="40" y="205" width="265" height="290" rx="6" fill="#ffffff" stroke="#16a34a" stroke-width="2"/>
  <rect x="40" y="205" width="265" height="33" rx="6" fill="#16a34a"/>
  <rect x="40" y="224" width="265" height="14" fill="#16a34a"/>
  <text x="172" y="226" text-anchor="middle" font-size="12" font-weight="700" fill="white">HINDSIGHT</text>
  <text x="172" y="249" text-anchor="middle" font-size="8.5" fill="#6b7280">91.4% LongMemEval • MIT • PostgreSQL+pgvector</text>
  <rect x="55" y="258" width="235" height="40" rx="4" fill="#dcfce7" stroke="#bbf7d0" stroke-width="1"/>
  <text x="67" y="272" font-size="10" font-weight="700" fill="#15803d">World Ⓦ</text>
  <text x="67" y="285" font-size="8.5" fill="#374151">Objective org facts</text>
  <text x="281" y="285" text-anchor="end" font-size="8" fill="#6b7280">Semantic</text>
  <rect x="55" y="305" width="235" height="40" rx="4" fill="#dcfce7" stroke="#bbf7d0" stroke-width="1"/>
  <text x="67" y="319" font-size="10" font-weight="700" fill="#15803d">Experience ⓑ</text>
  <text x="67" y="332" font-size="8.5" fill="#374151">Agent actions + outcomes</text>
  <text x="281" y="332" text-anchor="end" font-size="8" fill="#6b7280">Episodic + Outcome</text>
  <rect x="55" y="352" width="235" height="40" rx="4" fill="#dcfce7" stroke="#bbf7d0" stroke-width="1"/>
  <text x="67" y="366" font-size="10" font-weight="700" fill="#15803d">Opinion ⓞ</text>
  <text x="67" y="379" font-size="8.5" fill="#374151">Confidence-scored beliefs</text>
  <text x="281" y="379" text-anchor="end" font-size="8" fill="#6b7280">Persona</text>
  <rect x="55" y="399" width="235" height="40" rx="4" fill="#dcfce7" stroke="#bbf7d0" stroke-width="1"/>
  <text x="67" y="413" font-size="10" font-weight="700" fill="#15803d">Observation Ⓜ</text>
  <text x="67" y="426" font-size="8.5" fill="#374151">Preference-neutral summaries</text>
  <text x="281" y="426" text-anchor="end" font-size="8" fill="#6b7280">Persona + Semantic</text>
  <rect x="55" y="448" width="235" height="22" rx="4" fill="#f0fdf4" stroke="#bbf7d0" stroke-width="1"/>
  <text x="172" y="463" text-anchor="middle" font-size="8.5" fill="#15803d">TEMPR: Semantic • BM25 • Graph • Temporal</text>
  <text x="172" y="486" text-anchor="middle" font-size="9" fill="#6b7280">Covers 7/9 intelligence types</text>
  <rect x="348" y="205" width="264" height="290" rx="6" fill="#ffffff" stroke="#2563eb" stroke-width="2"/>
  <rect x="348" y="205" width="264" height="33" rx="6" fill="#2563eb"/>
  <rect x="348" y="224" width="264" height="14" fill="#2563eb"/>
  <text x="480" y="226" text-anchor="middle" font-size="12" font-weight="700" fill="white">LLM WIKI</text>
  <text x="480" y="249" text-anchor="middle" font-size="8.5" fill="#6b7280">Hermes Skill • Zero Infrastructure • Markdown in git</text>
  <rect x="363" y="258" width="234" height="31" rx="4" fill="#dbeafe" stroke="#bfdbfe" stroke-width="1"/>
  <text x="375" y="271" font-family="Consolas,monospace" font-size="9.5" fill="#1d4ed8">wiki/procedures/</text>
  <text x="375" y="284" font-size="8.5" fill="#374151">SOPs, model routing rules</text>
  <rect x="363" y="296" width="234" height="31" rx="4" fill="#dbeafe" stroke="#bfdbfe" stroke-width="1"/>
  <text x="375" y="309" font-family="Consolas,monospace" font-size="9.5" fill="#1d4ed8">wiki/decisions/</text>
  <text x="375" y="322" font-size="8.5" fill="#374151">└→ replaces ByteRover</text>
  <rect x="363" y="334" width="234" height="31" rx="4" fill="#dbeafe" stroke="#bfdbfe" stroke-width="1"/>
  <text x="375" y="347" font-family="Consolas,monospace" font-size="9.5" fill="#1d4ed8">wiki/entities/</text>
  <text x="375" y="360" font-size="8.5" fill="#374151">clients, agents, projects</text>
  <rect x="363" y="372" width="234" height="31" rx="4" fill="#dbeafe" stroke="#bfdbfe" stroke-width="1"/>
  <text x="375" y="385" font-family="Consolas,monospace" font-size="9.5" fill="#1d4ed8">wiki/concepts/</text>
  <text x="375" y="398" font-size="8.5" fill="#374151">tech + frameworks</text>
  <rect x="363" y="410" width="234" height="31" rx="4" fill="#dbeafe" stroke="#bfdbfe" stroke-width="1"/>
  <text x="375" y="423" font-family="Consolas,monospace" font-size="9.5" fill="#1d4ed8">wiki/syntheses/</text>
  <text x="375" y="436" font-size="8.5" fill="#374151">saved Q&amp;A answers</text>
  <rect x="363" y="450" width="234" height="20" rx="4" fill="#eff6ff" stroke="#bfdbfe" stroke-width="1"/>
  <text x="480" y="464" text-anchor="middle" font-size="8.5" fill="#1d4ed8">3 ops: ingest • query • lint</text>
  <text x="480" y="486" text-anchor="middle" font-size="9" fill="#6b7280">Procedural (primary) • Semantic</text>
  <rect x="655" y="205" width="265" height="290" rx="6" fill="#ffffff" stroke="#ea580c" stroke-width="2"/>
  <rect x="655" y="205" width="265" height="33" rx="6" fill="#ea580c"/>
  <rect x="655" y="224" width="265" height="14" fill="#ea580c"/>
  <text x="787" y="226" text-anchor="middle" font-size="12" font-weight="700" fill="white">CLICKHOUSE</text>
  <text x="787" y="249" text-anchor="middle" font-size="8.5" fill="#6b7280">Columnar OLAP • Direct Agent Hooks • HyperDX UI</text>
  <rect x="670" y="258" width="235" height="29" rx="4" fill="#fff7ed" stroke="#fed7aa" stroke-width="1"/>
  <text x="682" y="270" font-family="Consolas,monospace" font-size="10" fill="#9a3412">task_start</text>
  <text x="682" y="282" font-size="8" fill="#6b7280">① Intent</text>
  <rect x="670" y="294" width="235" height="29" rx="4" fill="#fff7ed" stroke="#fed7aa" stroke-width="1"/>
  <text x="682" y="306" font-family="Consolas,monospace" font-size="10" fill="#9a3412">action</text>
  <text x="682" y="318" font-size="8" fill="#6b7280">② Behavioral</text>
  <rect x="670" y="330" width="235" height="29" rx="4" fill="#fff7ed" stroke="#fed7aa" stroke-width="1"/>
  <text x="682" y="342" font-family="Consolas,monospace" font-size="10" fill="#9a3412">task_end</text>
  <text x="682" y="354" font-size="8" fill="#6b7280">③ Outcome + Relational</text>
  <rect x="670" y="366" width="235" height="29" rx="4" fill="#fff7ed" stroke="#fed7aa" stroke-width="1"/>
  <text x="682" y="378" font-family="Consolas,monospace" font-size="10" fill="#9a3412">user_feedback</text>
  <text x="682" y="390" font-size="8" fill="#6b7280">④ Persona</text>
  <rect x="670" y="402" width="235" height="29" rx="4" fill="#fff7ed" stroke="#fed7aa" stroke-width="1"/>
  <text x="682" y="414" font-family="Consolas,monospace" font-size="10" fill="#9a3412">periodic</text>
  <text x="682" y="426" font-size="8" fill="#6b7280">⑤ Reflect</text>
  <rect x="670" y="440" width="235" height="33" rx="4" fill="#fef3c7" stroke="#fbbf24" stroke-width="1"/>
  <text x="787" y="455" text-anchor="middle" font-size="9" font-weight="700" fill="#92400e">Relational ✓   Temporal ✓</text>
  <text x="787" y="468" text-anchor="middle" font-size="8.5" fill="#92400e">Fills Hindsight gaps → 9/9 types covered</text>
  <text x="787" y="486" text-anchor="middle" font-size="9" fill="#6b7280">SQL analytics • time-series • drift detection</text>
  <rect x="245" y="568" width="470" height="92" rx="8" fill="#ffffff" stroke="#7c3aed" stroke-width="2"/>
  <rect x="245" y="568" width="470" height="30" rx="8" fill="#7c3aed"/>
  <rect x="245" y="583" width="470" height="15" fill="#7c3aed"/>
  <text x="480" y="588" text-anchor="middle" font-size="11" font-weight="700" fill="white">ANALYSIS AGENT</text>
  <text x="480" y="611" text-anchor="middle" font-size="9" fill="#6b21a8">Paperclip Meta-Layer • Scheduled • not project-level</text>
  <text x="480" y="628" text-anchor="middle" font-size="9" fill="#374151">Weekly: model routing • agent performance • cost optimisation</text>
  <text x="480" y="643" text-anchor="middle" font-size="9" fill="#374151">Monthly: process optimisation • client intelligence</text>
  <rect x="758" y="576" width="160" height="72" rx="6" fill="#fffbeb" stroke="#d97706" stroke-width="1.5"/>
  <text x="838" y="598" text-anchor="middle" font-size="11" font-weight="700" fill="#92400e">FELIX COO</text>
  <text x="838" y="613" text-anchor="middle" font-size="9" fill="#374151">Human review queue</text>
  <text x="838" y="628" text-anchor="middle" font-size="8.5" fill="#6b7280">prompt changes</text>
  <text x="838" y="641" text-anchor="middle" font-size="8.5" fill="#6b7280">budget • client risk</text>
  <line x1="163" y1="163" x2="163" y2="203" stroke="#059669" stroke-width="2" marker-end="url(#a-green)"/>
  <line x1="178" y1="203" x2="178" y2="163" stroke="#059669" stroke-width="1.5" stroke-dasharray="4,2" marker-end="url(#a-green)"/>
  <rect x="110" y="175" width="40" height="13" rx="2" fill="#f8f6f3" opacity="0.95"/>
  <text x="130" y="185" text-anchor="middle" font-size="8" fill="#059669">retain</text>
  <rect x="182" y="175" width="36" height="13" rx="2" fill="#f8f6f3" opacity="0.95"/>
  <text x="200" y="185" text-anchor="middle" font-size="8" fill="#059669">recall</text>
  <line x1="469" y1="163" x2="469" y2="203" stroke="#2563eb" stroke-width="2" marker-end="url(#a-blue)"/>
  <line x1="485" y1="203" x2="485" y2="163" stroke="#2563eb" stroke-width="1.5" stroke-dasharray="4,2" marker-end="url(#a-blue)"/>
  <rect x="424" y="175" width="36" height="13" rx="2" fill="#f8f6f3" opacity="0.95"/>
  <text x="442" y="185" text-anchor="middle" font-size="8" fill="#2563eb">ingest</text>
  <rect x="489" y="175" width="32" height="13" rx="2" fill="#f8f6f3" opacity="0.95"/>
  <text x="505" y="185" text-anchor="middle" font-size="8" fill="#2563eb">query</text>
  <line x1="780" y1="163" x2="780" y2="203" stroke="#ea580c" stroke-width="2" marker-end="url(#a-orange)"/>
  <rect x="725" y="175" width="48" height="13" rx="2" fill="#f8f6f3" opacity="0.95"/>
  <text x="749" y="185" text-anchor="middle" font-size="8" fill="#ea580c">5 signals</text>
  <path d="M 787 497 L 787 545 L 714 568" stroke="#6b7280" stroke-width="1.5" stroke-dasharray="4,2" fill="none" marker-end="url(#a-gray)"/>
  <rect x="726" y="516" width="60" height="13" rx="2" fill="#f8f6f3" opacity="0.95"/>
  <text x="756" y="526" text-anchor="middle" font-size="8" fill="#6b7280">SQL queries</text>
  <path d="M 415 568 L 415 497 L 478 497" stroke="#7c3aed" stroke-width="1.5" fill="none" marker-end="url(#a-purple)"/>
  <rect x="366" y="521" width="78" height="13" rx="2" fill="#f8f6f3" opacity="0.95"/>
  <text x="405" y="531" text-anchor="middle" font-size="8" fill="#7c3aed">update SOPs</text>
  <path d="M 247 600 L 24 600 L 24 348 L 38 348" stroke="#7c3aed" stroke-width="1.5" stroke-dasharray="4,2" fill="none" marker-end="url(#a-purple)"/>
  <rect x="85" y="588" width="68" height="13" rx="2" fill="#f8f6f3" opacity="0.95"/>
  <text x="119" y="598" text-anchor="middle" font-size="8" fill="#7c3aed">BI learning</text>
  <line x1="715" y1="608" x2="756" y2="608" stroke="#6b7280" stroke-width="1" stroke-dasharray="3,2" fill="none" marker-end="url(#a-gray)"/>
  <rect x="715" y="596" width="42" height="13" rx="2" fill="#f8f6f3" opacity="0.95"/>
  <text x="736" y="606" text-anchor="middle" font-size="8" fill="#6b7280">escalate</text>
  <rect x="40" y="714" width="880" height="88" rx="6" fill="#ffffff" stroke="#e2e8f0" stroke-width="1"/>
  <text x="60" y="731" font-size="9" font-weight="700" fill="#374151">LEGEND</text>
  <line x1="60" y1="750" x2="105" y2="750" stroke="#059669" stroke-width="2" marker-end="url(#a-green)"/>
  <text x="110" y="754" font-size="8.5" fill="#374151">Memory read (recall) — before every task</text>
  <line x1="60" y1="768" x2="105" y2="768" stroke="#059669" stroke-width="1.5" stroke-dasharray="4,2" marker-end="url(#a-green)"/>
  <text x="110" y="772" font-size="8.5" fill="#374151">Memory write (retain) — after every task</text>
  <line x1="60" y1="786" x2="105" y2="786" stroke="#2563eb" stroke-width="2" marker-end="url(#a-blue)"/>
  <text x="110" y="790" font-size="8.5" fill="#374151">Procedural knowledge (ingest / query)</text>
  <line x1="350" y1="750" x2="395" y2="750" stroke="#ea580c" stroke-width="2" marker-end="url(#a-orange)"/>
  <text x="400" y="754" font-size="8.5" fill="#374151">Analytics event (emit_signal) — never blocks agent</text>
  <line x1="350" y1="768" x2="395" y2="768" stroke="#6b7280" stroke-width="1.5" stroke-dasharray="4,2" marker-end="url(#a-gray)"/>
  <text x="400" y="772" font-size="8.5" fill="#374151">SQL analytics query / escalation to Felix</text>
  <line x1="350" y1="786" x2="395" y2="786" stroke="#7c3aed" stroke-width="1.5" marker-end="url(#a-purple)"/>
  <text x="400" y="790" font-size="8.5" fill="#374151">BI feedback loop — self-improvement</text>
  <line x1="650" y1="750" x2="695" y2="750" stroke="#7c3aed" stroke-width="1.5" stroke-dasharray="4,2" marker-end="url(#a-purple)"/>
  <text x="700" y="754" font-size="8.5" fill="#374151">BI learning retained in Hindsight (async)</text>
  <line x1="650" y1="768" x2="695" y2="768" stroke="#6b7280" stroke-width="1" stroke-dasharray="3,2" marker-end="url(#a-gray)"/>
  <text x="700" y="772" font-size="8.5" fill="#374151">Human escalation — prompt/budget changes</text>
  <text x="480" y="793" text-anchor="middle" font-size="8" fill="#94a3b8">Abzum Memory Stack v2.0 • execution/context_persistence.md • 9/9 intelligence types covered</text>
</svg>